<svg width="24" height="23" viewBox="0 0 24 23" fill="none" xmlns="http://www.w3.org/2000/svg">
<path d="M19.9688 22.4984H4.03125C2.84231 22.4984 1.875 21.5312 1.875 20.3422V8.9975C1.875 8.58331 2.21077 8.2475 2.625 8.2475C3.03923 8.2475 3.375 8.58331 3.375 8.9975V20.3422C3.375 20.7041 3.66938 20.9984 4.03125 20.9984H19.9688C20.3306 20.9984 20.625 20.7041 20.625 20.3422V8.9975C20.625 8.58331 20.9608 8.2475 21.375 8.2475C21.7892 8.2475 22.125 8.58331 22.125 8.9975V20.3422C22.125 21.5311 21.1577 22.4984 19.9688 22.4984Z" fill="black"/>
<path d="M23.25 11.6222C23.1515 11.6224 23.0539 11.603 22.9629 11.5653C22.8719 11.5276 22.7892 11.4723 22.7197 11.4025L13.3921 2.07502C12.6245 1.30739 11.3755 1.30739 10.6079 2.07502L1.28033 11.4026C0.987457 11.6955 0.512566 11.6955 0.219691 11.4026C-0.0732305 11.1097 -0.0732305 10.6348 0.219691 10.3419L9.54725 1.01433C10.8997 -0.338109 13.1003 -0.338109 14.4527 1.01433L23.7803 10.3419C24.0732 10.6348 24.0732 11.1097 23.7803 11.4025C23.7107 11.4723 23.6281 11.5276 23.5371 11.5653C23.4461 11.603 23.3485 11.6224 23.25 11.6222ZM15 22.4984H8.99999C8.58575 22.4984 8.24999 22.1626 8.24999 21.7484V15.0922C8.24999 13.7998 9.30139 12.7484 10.5937 12.7484H13.4062C14.6986 12.7484 15.75 13.7998 15.75 15.0922V21.7484C15.75 22.1626 15.4142 22.4984 15 22.4984ZM9.74999 20.9984H14.25V15.0922C14.25 14.6269 13.8715 14.2484 13.4062 14.2484H10.5937C10.1285 14.2484 9.74999 14.6269 9.74999 15.0922V20.9984Z" fill="black"/>
</svg>
