<svg width="22" height="22" viewBox="0 0 22 22" fill="none" xmlns="http://www.w3.org/2000/svg">
<path d="M14 7.75C14 9.54493 12.5449 11 10.75 11V12.5C13.3734 12.5 15.5 10.3734 15.5 7.75H14ZM10.75 11C8.95507 11 7.5 9.54493 7.5 7.75H6C6 10.3734 8.12665 12.5 10.75 12.5V11ZM7.5 7.75C7.5 5.95507 8.95507 4.5 10.75 4.5V3C8.12665 3 6 5.12665 6 7.75H7.5ZM10.75 4.5C12.5449 4.5 14 5.95507 14 7.75H15.5C15.5 5.12665 13.3734 3 10.75 3V4.5ZM7.75 15.5H13.75V14H7.75V15.5ZM1.5 10.75C1.5 5.64137 5.64137 1.5 10.75 1.5V0C4.81294 0 0 4.81294 0 10.75H1.5ZM10.75 1.5C15.8586 1.5 20 5.64137 20 10.75H21.5C21.5 4.81294 16.6871 0 10.75 0V1.5ZM20 10.75C20 13.3733 18.909 15.7405 17.1539 17.4248L18.1925 18.5071C20.2301 16.5516 21.5 13.7985 21.5 10.75H20ZM17.1539 17.4248C15.4912 19.0205 13.2358 20 10.75 20V21.5C13.6382 21.5 16.2617 20.36 18.1925 18.5071L17.1539 17.4248ZM13.75 15.5C15.326 15.5 16.6415 16.6226 16.9376 18.1121L18.4088 17.8197C17.976 15.6418 16.0555 14 13.75 14V15.5ZM10.75 20C8.26425 20 6.00884 19.0205 4.34612 17.4248L3.30751 18.5071C5.23833 20.36 7.86182 21.5 10.75 21.5V20ZM4.34612 17.4248C2.59103 15.7405 1.5 13.3733 1.5 10.75H0C0 13.7985 1.26989 16.5516 3.30751 18.5071L4.34612 17.4248ZM7.75 14C5.44445 14 3.52403 15.6418 3.0912 17.8197L4.56243 18.1121C4.85846 16.6226 6.17396 15.5 7.75 15.5V14Z" fill="#111827"/>
</svg>
