<svg width="13" height="15" viewBox="0 0 13 15" fill="none" xmlns="http://www.w3.org/2000/svg">
<path d="M11.4454 1.5568H9.36992V1.26048C9.36992 0.56544 8.80448 0 8.10944 0H4.32224C3.6272 0 3.06176 0.56544 3.06176 1.26048V1.5568H0.98624C0.724792 1.5571 0.474134 1.66108 0.289247 1.84593C0.10436 2.03079 0.00033877 2.28143 0 2.54288V3.0104C0 3.51936 0.38768 3.93936 0.88304 3.9912L1.89856 12.9026C1.99536 13.7536 2.71456 14.3954 3.5712 14.3954H8.86032C9.71696 14.3954 10.4362 13.7536 10.533 12.9026L11.5485 3.9912C11.7907 3.96543 12.0149 3.85102 12.1779 3.66997C12.3409 3.48892 12.4312 3.25401 12.4315 3.0104V2.54288C12.4312 2.28143 12.3272 2.03079 12.1423 1.84593C11.9574 1.66108 11.7069 1.5571 11.4454 1.5568ZM3.70192 1.26048C3.70209 1.09597 3.76752 0.938247 3.88384 0.821922C4.00017 0.705596 4.15789 0.640169 4.3224 0.64H8.1096C8.27411 0.640169 8.43183 0.705596 8.54816 0.821922C8.66448 0.938247 8.72991 1.09597 8.73008 1.26048V1.5568H3.70192V1.26048ZM9.89728 12.8301C9.86841 13.0848 9.74676 13.3199 9.55554 13.4906C9.36432 13.6612 9.11695 13.7555 8.86064 13.7554H3.57152C3.31521 13.7555 3.06783 13.6612 2.87662 13.4906C2.6854 13.3199 2.56375 13.0848 2.53488 12.8301L1.52832 3.99664H10.904L9.89728 12.8301ZM11.7918 3.0104C11.7917 3.10219 11.7552 3.19018 11.6903 3.25509C11.6254 3.31999 11.5374 3.35651 11.4456 3.35664H0.98624C0.89445 3.35651 0.806457 3.31999 0.741552 3.25509C0.676647 3.19018 0.640127 3.10219 0.64 3.0104V2.54288C0.64 2.35216 0.79536 2.1968 0.98624 2.1968H11.4453C11.6362 2.1968 11.7915 2.35216 11.7915 2.54288V3.0104H11.7918Z" fill="#EF4444"/>
<path d="M6.2158 12.0234C6.30067 12.0234 6.38207 11.9896 6.44208 11.9296C6.50209 11.8696 6.5358 11.7882 6.5358 11.7034V6.04864C6.5358 5.96377 6.50209 5.88237 6.44208 5.82236C6.38207 5.76235 6.30067 5.72864 6.2158 5.72864C6.13093 5.72864 6.04954 5.76235 5.98953 5.82236C5.92952 5.88237 5.8958 5.96377 5.8958 6.04864V11.7034C5.8958 11.7882 5.92952 11.8696 5.98953 11.9296C6.04954 11.9896 6.13093 12.0234 6.2158 12.0234ZM8.12876 12.0085C8.17058 12.0126 8.2128 12.0084 8.253 11.9962C8.2932 11.984 8.3306 11.9639 8.36306 11.9372C8.39551 11.9106 8.42239 11.8777 8.44214 11.8406C8.4619 11.8036 8.47416 11.7629 8.4782 11.7211L9.02636 6.09296C9.03462 6.00849 9.00898 5.92421 8.95509 5.85864C8.9012 5.79308 8.82347 5.75161 8.739 5.74336C8.69713 5.73899 8.6548 5.74298 8.61449 5.7551C8.57417 5.76722 8.53666 5.78723 8.50414 5.81396C8.47161 5.84069 8.44472 5.87362 8.42503 5.91083C8.40533 5.94804 8.39322 5.98879 8.3894 6.03072L7.84124 11.6589C7.83299 11.7433 7.85863 11.8276 7.91252 11.8932C7.96641 11.9588 8.0443 12.0002 8.12876 12.0085ZM4.27148 12.0101C4.31616 12.0101 4.36034 12.0008 4.4012 11.9827C4.44205 11.9646 4.47867 11.9382 4.50869 11.9051C4.53872 11.872 4.56148 11.833 4.57552 11.7906C4.58956 11.7482 4.59456 11.7033 4.5902 11.6589L4.04204 6.03072C4.0382 5.9888 4.02608 5.94806 4.00638 5.91086C3.98667 5.87366 3.95978 5.84074 3.92727 5.81401C3.89475 5.78728 3.85725 5.76728 3.81694 5.75515C3.77663 5.74302 3.73431 5.73901 3.69244 5.74336C3.60798 5.75161 3.53025 5.79308 3.47636 5.85864C3.42247 5.92421 3.39683 6.00849 3.40508 6.09296L3.95324 11.7211C3.96095 11.8002 3.99777 11.8735 4.05656 11.9269C4.11535 11.9803 4.19206 12.01 4.27148 12.0101Z" fill="#EF4444"/>
</svg>
