<svg width="15" height="15" viewBox="0 0 15 15" fill="none" xmlns="http://www.w3.org/2000/svg">
<path d="M13.7933 1.00841L13.32 0.535075C12.9755 0.192374 12.5093 0 12.0233 0C11.5374 0 11.0712 0.192374 10.7267 0.535075L3.85333 7.42174C3.66 7.61508 3.54 7.86841 3.51333 8.14174L3.33333 10.0951C3.31333 10.3417 3.4 10.5817 3.57333 10.7617C3.73333 10.9217 3.94 11.0084 4.16 11.0084H4.23333L6.18667 10.8284C6.46 10.8017 6.71333 10.6817 6.90667 10.4884L13.7867 3.60841C13.9574 3.43909 14.093 3.23762 14.1855 3.01564C14.278 2.79366 14.3256 2.55556 14.3256 2.31508C14.3256 2.07459 14.278 1.83649 14.1855 1.61451C14.093 1.39253 13.9574 1.19107 13.7867 1.02174L13.7933 1.00841ZM6.20667 9.77508C6.20667 9.77508 6.14 9.82174 6.10667 9.82174L4.35333 9.98174L4.51333 8.22841C4.51333 8.18841 4.53333 8.15508 4.56 8.12174L10.1467 2.53508L11.7933 4.18174L6.20667 9.76841V9.77508ZM13.0867 2.89508L12.5 3.48174L10.8533 1.83508L11.44 1.24841C11.6 1.08841 11.8133 1.00174 12.0267 1.00174C12.24 1.00174 12.4533 1.08174 12.6133 1.24841L13.0867 1.72174C13.1646 1.79831 13.2264 1.88962 13.2686 1.99034C13.3109 2.09107 13.3326 2.19919 13.3326 2.30841C13.3326 2.41763 13.3109 2.52575 13.2686 2.62648C13.2264 2.7272 13.1646 2.81851 13.0867 2.89508ZM13 7.96174V11.8351C13 13.2151 11.88 14.3351 10.5 14.3351H2.5C1.12 14.3351 0 13.2151 0 11.8351V3.83508C0 2.45508 1.12 1.33508 2.5 1.33508H6.37333C6.64667 1.33508 6.87333 1.56174 6.87333 1.83508C6.87333 2.10841 6.64667 2.33508 6.37333 2.33508H2.5C1.67333 2.33508 1 3.00841 1 3.83508V11.8351C1 12.6617 1.67333 13.3351 2.5 13.3351H10.5C11.3267 13.3351 12 12.6617 12 11.8351V7.96174C12 7.68841 12.2267 7.46174 12.5 7.46174C12.7733 7.46174 13 7.68841 13 7.96174Z" fill="#84C000"/>
</svg>
