<svg width="20" height="20" viewBox="0 0 20 20" fill="none" xmlns="http://www.w3.org/2000/svg">
<path d="M3.96675 15.675H4.05841L6.50008 15.45C6.84175 15.4167 7.15841 15.2667 7.40008 15.025L16.6167 5.80837C17.0501 5.37504 17.2917 4.80004 17.2917 4.19171C17.2917 3.58337 17.0501 3.00837 16.6167 2.57504L16.0251 1.98337C15.1584 1.11671 13.6501 1.11671 12.7834 1.98337L11.6084 3.15837L3.57508 11.1917C3.33341 11.4334 3.18341 11.75 3.15841 12.0917L2.93341 14.5334C2.90841 14.8417 3.01675 15.1417 3.23341 15.3667C3.43341 15.5667 3.69175 15.675 3.96675 15.675ZM14.4084 2.55837C14.6751 2.55837 14.9417 2.65837 15.1417 2.86671L15.7334 3.45837C15.8308 3.55408 15.9081 3.66822 15.9609 3.79412C16.0137 3.92003 16.0409 4.05519 16.0409 4.19171C16.0409 4.32823 16.0137 4.46339 15.9609 4.58929C15.9081 4.7152 15.8308 4.82933 15.7334 4.92504L15.0001 5.65837L12.9417 3.60004L13.6751 2.86671C13.8751 2.66671 14.1417 2.55837 14.4084 2.55837ZM4.40008 12.2084C4.40008 12.1584 4.42508 12.1167 4.45841 12.0834L12.0501 4.48337L14.1084 6.54171L6.51675 14.1334C6.51675 14.1334 6.43341 14.1917 6.39175 14.1917L4.20008 14.3917L4.40008 12.2V12.2084ZM18.9584 18.3334C18.9584 18.675 18.6751 18.9584 18.3334 18.9584H1.66675C1.32508 18.9584 1.04175 18.675 1.04175 18.3334C1.04175 17.9917 1.32508 17.7084 1.66675 17.7084H18.3334C18.6751 17.7084 18.9584 17.9917 18.9584 18.3334Z" fill="#84C000"/>
</svg>
