<svg width="38" height="37" viewBox="0 0 38 37" fill="none" xmlns="http://www.w3.org/2000/svg">
<path d="M34.9499 15.7593C34.8146 11.6289 33.108 7.70587 30.1785 4.79097C27.0893 1.70109 22.9835 0 18.6182 0C9.80163 0 2.59766 7.01753 2.28712 15.7593C1.6073 16.0604 1.02941 16.5523 0.623464 17.1752C0.217519 17.7981 0.000950404 18.5254 0 19.269V23.5808C0.00110016 24.599 0.406063 25.5752 1.12603 26.2951C1.84601 27.0151 2.82218 27.4201 3.84037 27.4212C4.49916 27.4204 5.13073 27.1583 5.59656 26.6925C6.06239 26.2267 6.32443 25.5951 6.32522 24.9363V17.9128C6.32522 16.6262 5.33841 15.577 4.08381 15.4523C4.54694 7.83631 10.887 1.78125 18.6182 1.78125C22.5085 1.78125 26.1666 3.29769 28.9198 6.05091C31.448 8.57909 32.9276 11.8744 33.1502 15.4529C31.8968 15.5788 30.9118 16.6274 30.9118 17.9128V24.9357C30.9118 26.2331 31.9141 27.2887 33.1835 27.3986V29.1733C33.1824 30.1343 32.8001 31.0556 32.1206 31.735C31.441 32.4145 30.5196 32.7966 29.5587 32.7976H26.8743C26.6933 32.2699 26.3517 31.8122 25.8973 31.4887C25.4429 31.1652 24.8986 30.9921 24.3408 30.9937H21.5739C21.1767 30.9937 20.7955 31.0781 20.4464 31.2408C19.9789 31.4567 19.5829 31.8019 19.3052 32.2355C19.0274 32.6692 18.8795 33.1732 18.8789 33.6882C18.8789 34.409 19.1597 35.0859 19.6686 35.5923C19.918 35.8438 20.2148 36.0431 20.5419 36.1789C20.869 36.3147 21.2198 36.3841 21.5739 36.3832H24.3408C25.4879 36.3832 26.4991 35.6416 26.8761 34.5788H29.5587C32.5399 34.5788 34.9647 32.1539 34.9647 29.1733V27.0815C35.6405 26.7787 36.2144 26.2871 36.6174 25.6658C37.0205 25.0446 37.2354 24.3201 37.2364 23.5796V19.2678C37.2364 17.7038 36.2948 16.3572 34.9499 15.7593ZM4.54338 17.9128V24.9357C4.54338 25.3234 4.22809 25.6393 3.83978 25.6393C3.29386 25.6387 2.77048 25.4215 2.38445 25.0355C1.99843 24.6495 1.78128 24.1261 1.78066 23.5802V19.2684C1.78128 18.7225 1.99843 18.1991 2.38445 17.813C2.77048 17.427 3.29386 17.2099 3.83978 17.2092C4.22809 17.2092 4.54338 17.5251 4.54338 17.9128ZM25.2344 33.8794C25.1901 34.0839 25.0773 34.2671 24.9147 34.3987C24.7521 34.5303 24.5494 34.6025 24.3402 34.6032H21.5733C21.3299 34.6032 21.1013 34.5082 20.9267 34.3336C20.8418 34.2492 20.7744 34.1489 20.7285 34.0383C20.6827 33.9277 20.6592 33.8091 20.6595 33.6894C20.6602 33.4473 20.7567 33.2153 20.9279 33.0441C21.0991 32.873 21.3312 32.7767 21.5733 32.7762H24.3402C24.5836 32.7762 24.8122 32.8706 24.9862 33.0452C25.1584 33.2168 25.2534 33.4459 25.2534 33.6894C25.254 33.7547 25.2468 33.82 25.2344 33.8794ZM35.4552 23.5802C35.4546 24.1261 35.2374 24.6495 34.8514 25.0355C34.4654 25.4215 33.942 25.6387 33.3961 25.6393C33.2095 25.6392 33.0306 25.565 32.8987 25.4331C32.7668 25.3011 32.6926 25.1223 32.6925 24.9357V17.9128C32.6925 17.5251 33.0077 17.2092 33.3961 17.2092C33.942 17.2099 34.4654 17.427 34.8514 17.813C35.2374 18.1991 35.4546 18.7225 35.4552 19.2684V23.5802Z" fill="#84C000"/>
</svg>
