<svg width="92" height="92" viewBox="0 0 92 92" fill="none" xmlns="http://www.w3.org/2000/svg">
<g filter="url(#filter0_d_12883_683)">
<rect x="20" y="16" width="52" height="52" rx="26" fill="#84C000" shape-rendering="crispEdges"/>
<path d="M50 39H49.25C49.25 40.7949 47.7949 42.25 46 42.25V43V43.75C48.6234 43.75 50.75 41.6234 50.75 39H50ZM46 43V42.25C44.2051 42.25 42.75 40.7949 42.75 39H42H41.25C41.25 41.6234 43.3766 43.75 46 43.75V43ZM42 39H42.75C42.75 37.2051 44.2051 35.75 46 35.75V35V34.25C43.3766 34.25 41.25 36.3766 41.25 39H42ZM46 35V35.75C47.7949 35.75 49.25 37.2051 49.25 39H50H50.75C50.75 36.3766 48.6234 34.25 46 34.25V35ZM43 46V46.75H49V46V45.25H43V46ZM36 42H36.75C36.75 36.8914 40.8914 32.75 46 32.75V32V31.25C40.0629 31.25 35.25 36.0629 35.25 42H36ZM46 32V32.75C51.1086 32.75 55.25 36.8914 55.25 42H56H56.75C56.75 36.0629 51.9371 31.25 46 31.25V32ZM56 42H55.25C55.25 44.6233 54.159 46.9905 52.4039 48.6748L52.9232 49.2159L53.4425 49.7571C55.4801 47.8016 56.75 45.0485 56.75 42H56ZM52.9232 49.2159L52.4039 48.6748C50.7412 50.2705 48.4858 51.25 46 51.25V52V52.75C48.8882 52.75 51.5117 51.61 53.4425 49.7571L52.9232 49.2159ZM49 46V46.75C50.576 46.75 51.8915 47.8726 52.1876 49.3621L52.9232 49.2159L53.6588 49.0697C53.226 46.8918 51.3055 45.25 49 45.25V46ZM46 52V51.25C43.5142 51.25 41.2588 50.2705 39.5961 48.6748L39.0768 49.2159L38.5575 49.7571C40.4883 51.61 43.1118 52.75 46 52.75V52ZM39.0768 49.2159L39.5961 48.6748C37.841 46.9905 36.75 44.6233 36.75 42H36H35.25C35.25 45.0485 36.5199 47.8016 38.5575 49.7571L39.0768 49.2159ZM43 46V45.25C40.6945 45.25 38.774 46.8918 38.3412 49.0697L39.0768 49.2159L39.8124 49.3621C40.1085 47.8726 41.424 46.75 43 46.75V46Z" fill="#FAFBF9"/>
</g>
<defs>
<filter id="filter0_d_12883_683" x="0" y="0" width="92" height="92" filterUnits="userSpaceOnUse" color-interpolation-filters="sRGB">
<feFlood flood-opacity="0" result="BackgroundImageFix"/>
<feColorMatrix in="SourceAlpha" type="matrix" values="0 0 0 0 0 0 0 0 0 0 0 0 0 0 0 0 0 0 127 0" result="hardAlpha"/>
<feOffset dy="4"/>
<feGaussianBlur stdDeviation="10"/>
<feComposite in2="hardAlpha" operator="out"/>
<feColorMatrix type="matrix" values="0 0 0 0 0.831373 0 0 0 0 0.831373 0 0 0 0 0.831373 0 0 0 1 0"/>
<feBlend mode="normal" in2="BackgroundImageFix" result="effect1_dropShadow_12883_683"/>
<feBlend mode="normal" in="SourceGraphic" in2="effect1_dropShadow_12883_683" result="shape"/>
</filter>
</defs>
</svg>
