<svg width="15" height="19" viewBox="0 0 15 19" fill="none" xmlns="http://www.w3.org/2000/svg">
<path d="M7.05882 0C4.11765 0 1.76471 2.35294 1.76471 5.29412V7.64706C0.764706 7.64706 0 8.41177 0 9.41177V17.0588C0 18.0588 0.764706 18.8235 1.76471 18.8235H12.3529C13.3529 18.8235 14.1176 18.0588 14.1176 17.0588V9.41177C14.1176 8.41177 13.3529 7.64706 12.3529 7.64706V5.29412C12.3529 2.35294 10 0 7.05882 0ZM12.9412 9.41177V17.0588C12.9412 17.4118 12.7059 17.6471 12.3529 17.6471H1.76471C1.41176 17.6471 1.17647 17.4118 1.17647 17.0588V9.41177C1.17647 9.05882 1.41176 8.82353 1.76471 8.82353H12.3529C12.7059 8.82353 12.9412 9.05882 12.9412 9.41177ZM2.94118 7.64706V5.29412C2.94118 3 4.76471 1.17647 7.05882 1.17647C9.35294 1.17647 11.1765 3 11.1765 5.29412V7.64706H2.94118Z" fill="#84C000"/>
<path d="M7.0589 10.5883C6.0589 10.5883 5.29419 11.353 5.29419 12.353C5.29419 13.1177 5.76478 13.7647 6.47066 14V15.2941C6.47066 15.6471 6.70595 15.8824 7.0589 15.8824C7.41184 15.8824 7.64713 15.6471 7.64713 15.2941V14C8.35301 13.7647 8.8236 13.1177 8.8236 12.353C8.8236 11.353 8.0589 10.5883 7.0589 10.5883ZM7.0589 12.9412C6.70595 12.9412 6.47066 12.7059 6.47066 12.353C6.47066 12 6.70595 11.7647 7.0589 11.7647C7.41184 11.7647 7.64713 12 7.64713 12.353C7.64713 12.7059 7.41184 12.9412 7.0589 12.9412Z" fill="#84C000"/>
</svg>
