<svg width="40" height="40" viewBox="0 0 40 40" fill="none" xmlns="http://www.w3.org/2000/svg">
<g clip-path="url(#clip0_9029_11583)">
<path d="M23.3334 17.5H22.5834C22.5834 18.9267 21.4268 20.0833 20.0001 20.0833V20.8333V21.5833C22.2552 21.5833 24.0834 19.7551 24.0834 17.5H23.3334ZM20.0001 20.8333V20.0833C18.5733 20.0833 17.4167 18.9267 17.4167 17.5H16.6667H15.9167C15.9167 19.7551 17.7449 21.5833 20.0001 21.5833V20.8333ZM16.6667 17.5H17.4167C17.4167 16.0732 18.5733 14.9166 20.0001 14.9166V14.1666V13.4166C17.7449 13.4166 15.9167 15.2448 15.9167 17.5H16.6667ZM20.0001 14.1666V14.9166C21.4268 14.9166 22.5834 16.0732 22.5834 17.5H23.3334H24.0834C24.0834 15.2448 22.2552 13.4166 20.0001 13.4166V14.1666ZM17.5001 23.3333V24.0833H22.5001V23.3333V22.5833H17.5001V23.3333ZM11.6667 20H12.4167C12.4167 15.8118 15.8119 12.4166 20.0001 12.4166V11.6666V10.9166C14.9835 10.9166 10.9167 14.9834 10.9167 20H11.6667ZM20.0001 11.6666V12.4166C24.1882 12.4166 27.5834 15.8118 27.5834 20H28.3334H29.0834C29.0834 14.9834 25.0167 10.9166 20.0001 10.9166V11.6666ZM28.3334 20H27.5834C27.5834 22.1506 26.6891 24.0911 25.2501 25.4721L25.7694 26.0132L26.2887 26.5544C28.0103 24.9022 29.0834 22.5758 29.0834 20H28.3334ZM25.7694 26.0132L25.2501 25.4721C23.8868 26.7804 22.038 27.5833 20.0001 27.5833V28.3333V29.0833C22.4404 29.0833 24.6574 28.1199 26.2887 26.5544L25.7694 26.0132ZM22.5001 23.3333V24.0833C23.7527 24.0833 24.7985 24.9755 25.0338 26.1594L25.7694 26.0132L26.505 25.867C26.1329 23.9948 24.4822 22.5833 22.5001 22.5833V23.3333ZM20.0001 28.3333V27.5833C17.9622 27.5833 16.1133 26.7804 14.7501 25.4721L14.2308 26.0132L13.7115 26.5544C15.3428 28.1199 17.5597 29.0833 20.0001 29.0833V28.3333ZM14.2308 26.0132L14.7501 25.4721C13.311 24.0911 12.4167 22.1506 12.4167 20H11.6667H10.9167C10.9167 22.5758 11.9899 24.9022 13.7115 26.5544L14.2308 26.0132ZM17.5001 23.3333V22.5833C15.518 22.5833 13.8672 23.9948 13.4951 25.867L14.2308 26.0132L14.9664 26.1594C15.2017 24.9755 16.2475 24.0833 17.5001 24.0833V23.3333Z" fill="#84C000"/>
</g>
<defs>
<clipPath id="clip0_9029_11583">
<rect width="20" height="20" fill="white" transform="translate(10 10)"/>
</clipPath>
</defs>
</svg>
