<svg width="40" height="40" viewBox="0 0 40 40" fill="none" xmlns="http://www.w3.org/2000/svg">
<g clip-path="url(#clip0_9029_11605)">
<path d="M20 15.8984C17.7384 15.8984 15.8984 17.7384 15.8984 20C15.8984 22.2616 17.7384 24.1016 20 24.1016C22.2616 24.1016 24.1016 22.2616 24.1016 20C24.1016 17.7384 22.2616 15.8984 20 15.8984ZM20 22.9297C18.3846 22.9297 17.0703 21.6154 17.0703 20C17.0703 18.3846 18.3846 17.0703 20 17.0703C21.6154 17.0703 22.9297 18.3846 22.9297 20C22.9297 21.6154 21.6154 22.9297 20 22.9297Z" fill="#84C000"/>
<path d="M29.554 18.2591L27.262 17.6955C27.124 17.2605 26.9468 16.8389 26.7327 16.4358L27.8008 14.6556C27.868 14.5436 27.8959 14.4123 27.8799 14.2826C27.8639 14.1529 27.8051 14.0322 27.7127 13.9398L26.0554 12.2826C25.963 12.1902 25.8424 12.1313 25.7127 12.1153C25.583 12.0994 25.4517 12.1272 25.3396 12.1945C25.3248 12.2034 24.1374 12.9158 23.5573 13.263C23.1565 13.051 22.7375 12.8754 22.3053 12.7382C22.1323 12.0361 21.7408 10.4458 21.7408 10.4458C21.7094 10.3186 21.6364 10.2056 21.5333 10.1247C21.4301 10.0439 21.3029 10 21.1719 10H18.8281C18.6971 10 18.5698 10.0439 18.4667 10.1247C18.3636 10.2056 18.2905 10.3186 18.2592 10.4459C18.098 11.1005 17.8286 12.195 17.6947 12.738C17.235 12.8839 16.7903 13.0733 16.3666 13.3037L15.3951 12.7209L14.5177 12.1945C14.4056 12.1272 14.2743 12.0994 14.1446 12.1154C14.0149 12.1313 13.8943 12.1902 13.8019 12.2826L12.1446 13.9398C12.0522 14.0322 11.9933 14.1529 11.9773 14.2826C11.9614 14.4123 11.9892 14.5436 12.0564 14.6556C12.0643 14.6687 12.7512 15.8136 13.1998 16.5646C13.0159 16.9281 12.8615 17.3059 12.7382 17.6942C11.9569 17.8886 10.4639 18.2548 10.4464 18.2591C10.3191 18.2903 10.2059 18.3633 10.1249 18.4665C10.044 18.5697 10 18.697 10 18.8281V21.1719C10 21.303 10.044 21.4303 10.1249 21.5335C10.2059 21.6367 10.3191 21.7097 10.4464 21.7409C10.4638 21.7452 11.9457 22.1086 12.7389 22.3048C12.8786 22.7474 13.059 23.176 13.2778 23.5853L12.2546 25.2908C12.1874 25.4028 12.1595 25.5341 12.1755 25.6638C12.1915 25.7935 12.2503 25.9142 12.3427 26.0066L14 27.6639C14.0924 27.7563 14.2131 27.8151 14.3428 27.8311C14.4725 27.8471 14.6038 27.8192 14.7158 27.752C14.7302 27.7433 15.8667 27.0614 16.4246 26.7275C16.8313 26.9441 17.2569 27.1231 17.696 27.2623L18.2591 29.5537C18.2904 29.6811 18.3634 29.7942 18.4666 29.8751C18.5697 29.9561 18.697 30 18.8281 30H21.1719C21.3029 30 21.4302 29.9561 21.5334 29.8752C21.6365 29.7944 21.7096 29.6813 21.7409 29.554L22.3044 27.2622C22.7539 27.1197 23.1889 26.935 23.6035 26.7104L25.3396 27.752C25.4517 27.8193 25.583 27.8471 25.7127 27.8311C25.8424 27.8152 25.963 27.7563 26.0554 27.6639L27.7127 26.0066C27.8051 25.9142 27.8639 25.7936 27.8799 25.6639C27.8959 25.5342 27.868 25.4029 27.8008 25.2908L26.7477 23.5357C26.9552 23.1414 27.1272 22.7295 27.2618 22.3048C27.9581 22.133 29.5349 21.7455 29.5539 21.7409C29.6812 21.7096 29.7943 21.6366 29.8752 21.5334C29.9561 21.4303 30 21.303 30 21.1719V18.8281C30 18.6971 29.9561 18.5698 29.8752 18.4666C29.7944 18.3635 29.6813 18.2904 29.554 18.2591ZM28.8281 20.7125C28.1516 20.8788 26.9249 21.1804 26.6906 21.239L26.6464 21.2501C26.5461 21.2762 26.4544 21.3285 26.3809 21.4016C26.3073 21.4747 26.2545 21.566 26.2277 21.6662C26.0797 22.2216 25.857 22.7545 25.5659 23.2501C25.5126 23.3409 25.4848 23.4443 25.4852 23.5495C25.4857 23.6548 25.5145 23.758 25.5686 23.8482L26.5605 25.5014L25.5503 26.5117L23.9119 25.5287C23.8204 25.4738 23.7157 25.4449 23.609 25.4451C23.5023 25.4454 23.3976 25.4747 23.3064 25.5301C22.7986 25.8381 22.2475 26.0727 21.6682 26.2275C21.5688 26.254 21.4782 26.3063 21.4054 26.3789C21.3327 26.4516 21.2803 26.5421 21.2536 26.6414C21.2314 26.7246 21.2098 26.8079 21.1888 26.8913L20.7125 28.8281H19.2876L18.8652 27.1077L18.7513 26.6521C18.7259 26.5506 18.6738 26.4577 18.6004 26.3832C18.527 26.3086 18.435 26.255 18.3339 26.2281C17.7654 26.0764 17.2206 25.847 16.7148 25.5466C16.6244 25.4929 16.5214 25.4646 16.4163 25.4645C16.3113 25.4643 16.2081 25.4924 16.1177 25.5459C15.9915 25.6204 15.0531 26.1831 14.5051 26.5118L13.4948 25.5014L14.4581 23.8958C14.5126 23.805 14.5414 23.7011 14.5416 23.5953C14.5417 23.4894 14.5132 23.3854 14.4589 23.2945C14.1549 22.7842 13.9244 22.2369 13.774 21.6678C13.7472 21.5664 13.6937 21.4741 13.619 21.4004C13.5444 21.3268 13.4514 21.2745 13.3496 21.2491C12.9302 21.1442 11.8042 20.8675 11.1718 20.7123V19.2876C11.8102 19.1307 12.9506 18.8501 13.35 18.7491C13.4512 18.7235 13.5436 18.6713 13.6179 18.5981C13.6921 18.5248 13.7455 18.433 13.7724 18.3322C13.912 17.8099 14.1171 17.3074 14.3829 16.8367C14.4337 16.7468 14.4598 16.645 14.4586 16.5417C14.4574 16.4385 14.4289 16.3374 14.376 16.2487C14.0928 15.7734 13.5916 14.9371 13.2966 14.4451L14.307 13.4347L14.7921 13.7258L16.0593 14.4861C16.1507 14.5407 16.2553 14.5694 16.3618 14.569C16.4683 14.5687 16.5727 14.5394 16.6637 14.4841C17.1838 14.1687 17.7462 13.9288 18.3339 13.772C18.4348 13.745 18.5268 13.6916 18.6001 13.6171C18.6735 13.5427 18.7256 13.45 18.7511 13.3487C18.7621 13.3049 19.1054 11.9106 19.2873 11.1719H20.7127C20.9047 11.9515 21.2448 13.3325 21.2488 13.3485C21.2742 13.4499 21.3263 13.5427 21.3997 13.6172C21.4731 13.6917 21.5651 13.7452 21.6662 13.7721C22.2287 13.9223 22.7682 14.1485 23.2697 14.4443C23.3601 14.4977 23.4632 14.5257 23.5682 14.5256C23.6731 14.5254 23.7761 14.4971 23.8664 14.4435C24.0308 14.3459 24.9946 13.768 25.5502 13.4346L26.5605 14.445L25.5529 16.1243C25.4985 16.2149 25.4697 16.3185 25.4694 16.4242C25.4691 16.5299 25.4974 16.6337 25.5513 16.7246C25.849 17.2269 26.0765 17.7676 26.2273 18.3316C26.2538 18.4308 26.3059 18.5213 26.3784 18.594C26.4509 18.6667 26.5412 18.719 26.6402 18.7459C26.7612 18.7786 26.8892 18.8106 26.8913 18.8111L28.8281 19.2874V20.7125Z" fill="#84C000"/>
</g>
<defs>
<clipPath id="clip0_9029_11605">
<rect width="20" height="20" fill="white" transform="translate(10 10)"/>
</clipPath>
</defs>
</svg>
