<svg width="16" height="16" viewBox="0 0 16 16" fill="none" xmlns="http://www.w3.org/2000/svg">
<path d="M13.0015 0H2.9985C2.20354 0.000952238 1.44141 0.317171 0.879292 0.879292C0.317171 1.44141 0.000952238 2.20354 0 2.9985V13.0015C0.000952238 13.7965 0.317171 14.5586 0.879292 15.1207C1.44141 15.6828 2.20354 15.999 2.9985 16H13.0015C13.7965 15.999 14.5586 15.6828 15.1207 15.1207C15.6828 14.5586 15.999 13.7965 16 13.0015V2.9985C15.999 2.20354 15.6828 1.44141 15.1207 0.879292C14.5586 0.317171 13.7965 0.000952238 13.0015 0ZM14.8006 13.0015C14.8 13.4785 14.6102 13.9357 14.273 14.273C13.9357 14.6102 13.4785 14.8 13.0015 14.8006H2.9985C2.52154 14.8 2.0643 14.6102 1.72705 14.273C1.38979 13.9357 1.20003 13.4785 1.1994 13.0015V2.9985C1.20003 2.52154 1.38979 2.0643 1.72705 1.72705C2.0643 1.38979 2.52154 1.20003 2.9985 1.1994H13.0015C13.4785 1.20003 13.9357 1.38979 14.273 1.72705C14.6102 2.0643 14.8 2.52154 14.8006 2.9985V13.0015ZM8.5997 11.8021C8.5997 11.9611 8.53652 12.1137 8.42405 12.2262C8.31159 12.3386 8.15905 12.4018 8 12.4018H3.87766C3.71861 12.4018 3.56607 12.3386 3.45361 12.2262C3.34114 12.1137 3.27796 11.9611 3.27796 11.8021C3.27796 11.643 3.34114 11.4905 3.45361 11.378C3.56607 11.2656 3.71861 11.2024 3.87766 11.2024H8C8.15905 11.2024 8.31159 11.2656 8.42405 11.378C8.53652 11.4905 8.5997 11.643 8.5997 11.8021ZM12.722 11.8021C12.722 11.9611 12.6589 12.1137 12.5464 12.2262C12.4339 12.3386 12.2814 12.4018 12.1223 12.4018H10.3892C10.2302 12.4018 10.0776 12.3386 9.96515 12.2262C9.85269 12.1137 9.78951 11.9611 9.78951 11.8021C9.78951 11.643 9.85269 11.4905 9.96515 11.378C10.0776 11.2656 10.2302 11.2024 10.3892 11.2024H12.1223C12.2814 11.2024 12.4339 11.2656 12.5464 11.378C12.6589 11.4905 12.722 11.643 12.722 11.8021ZM12.74 9.4033C12.74 9.56235 12.6768 9.71489 12.5644 9.82735C12.4519 9.93982 12.2994 10.003 12.1403 10.003H6.86177C6.70272 10.003 6.55018 9.93982 6.43772 9.82735C6.32525 9.71489 6.26207 9.56235 6.26207 9.4033C6.26207 9.24425 6.32525 9.09171 6.43772 8.97925C6.55018 8.86678 6.70272 8.8036 6.86177 8.8036H12.1403C12.2994 8.8036 12.4519 8.86678 12.5644 8.97925C12.6768 9.09171 12.74 9.24425 12.74 9.4033ZM3.27796 9.4033C3.27796 9.24425 3.34114 9.09171 3.45361 8.97925C3.56607 8.86678 3.71861 8.8036 3.87766 8.8036H4.49175C4.6508 8.8036 4.80334 8.86678 4.91581 8.97925C5.02827 9.09171 5.09145 9.24425 5.09145 9.4033C5.09145 9.56235 5.02827 9.71489 4.91581 9.82735C4.80334 9.93982 4.6508 10.003 4.49175 10.003H3.87766C3.71861 10.003 3.56607 9.93982 3.45361 9.82735C3.34114 9.71489 3.27796 9.56235 3.27796 9.4033Z" fill="#84C000"/>
</svg>
