<svg width="40" height="40" viewBox="0 0 40 40" fill="none" xmlns="http://www.w3.org/2000/svg">
<path d="M22.4999 20H18.3333" stroke="#84C000" stroke-width="1.5" stroke-linecap="round" stroke-linejoin="round"/>
<path d="M22.4999 16.6666H18.3333" stroke="#84C000" stroke-width="1.5" stroke-linecap="round" stroke-linejoin="round"/>
<path d="M25.8333 24.1667V14.1667C25.8333 13.7246 25.6577 13.3007 25.3451 12.9882C25.0325 12.6756 24.6086 12.5 24.1666 12.5H13.3333" stroke="#84C000" stroke-width="1.5" stroke-linecap="round" stroke-linejoin="round"/>
<path d="M16.6667 27.5H26.6667C27.1088 27.5 27.5327 27.3244 27.8453 27.0118C28.1578 26.6993 28.3334 26.2754 28.3334 25.8333V25C28.3334 24.779 28.2456 24.567 28.0893 24.4107C27.9331 24.2545 27.7211 24.1667 27.5001 24.1667H19.1667C18.9457 24.1667 18.7338 24.2545 18.5775 24.4107C18.4212 24.567 18.3334 24.779 18.3334 25V25.8333C18.3334 26.2754 18.1578 26.6993 17.8453 27.0118C17.5327 27.3244 17.1088 27.5 16.6667 27.5ZM16.6667 27.5C16.2247 27.5 15.8008 27.3244 15.4882 27.0118C15.1757 26.6993 15.0001 26.2754 15.0001 25.8333V14.1667C15.0001 13.7246 14.8245 13.3007 14.5119 12.9882C14.1994 12.6756 13.7754 12.5 13.3334 12.5C12.8914 12.5 12.4675 12.6756 12.1549 12.9882C11.8423 13.3007 11.6667 13.7246 11.6667 14.1667V15.8333C11.6667 16.0543 11.7545 16.2663 11.9108 16.4226C12.0671 16.5789 12.2791 16.6667 12.5001 16.6667H15.0001" stroke="#84C000" stroke-width="1.5" stroke-linecap="round" stroke-linejoin="round"/>
</svg>
