<svg width="48" height="43" viewBox="0 0 48 43" fill="none" xmlns="http://www.w3.org/2000/svg">
<path d="M36.9952 21.285C36.7469 21.2841 36.5089 21.1854 36.3328 21.0103C36.1575 20.8342 36.0587 20.596 36.0581 20.3475C36.0581 20.1009 36.158 19.8592 36.3328 19.685C36.5089 19.5098 36.7469 19.4111 36.9952 19.4103C37.2421 19.4103 37.4838 19.5106 37.658 19.685C37.8323 19.8593 37.9327 20.1009 37.9327 20.3474C37.9327 20.5942 37.8324 20.8359 37.658 21.0102C37.4837 21.1845 37.2421 21.285 36.9952 21.285Z" fill="#FBBF24"/>
<path d="M43.9573 42.6392H4.04256C2.58325 42.6392 1.27657 41.8848 0.5471 40.6215C-0.182367 39.3577 -0.182367 37.8489 0.5471 36.5855L20.5049 2.01768C21.2344 0.754404 22.541 0 24 0C25.459 0 26.7656 0.754404 27.4951 2.01778L35.7707 16.3513C36.0296 16.7995 35.8757 17.373 35.4276 17.6319C34.9789 17.8904 34.4058 17.737 34.147 17.2888L25.8717 2.95537C25.481 2.27896 24.7811 1.87462 24 1.87462C23.2189 1.87462 22.519 2.27896 22.1283 2.95527L2.17094 37.5227C1.78019 38.1994 1.78019 39.0072 2.17094 39.684C2.56131 40.3607 3.26125 40.7646 4.04265 40.7646H43.9574C44.7389 40.7646 45.4384 40.3607 45.8292 39.684C46.2199 39.0072 46.2199 38.1994 45.8292 37.5226L37.8293 23.6664C37.5704 23.2181 37.7242 22.645 38.1724 22.386C38.6206 22.1271 39.1941 22.2806 39.453 22.7291L47.4529 36.5854C48.1824 37.8489 48.1824 39.3576 47.4529 40.6214C46.7231 41.8848 45.4168 42.6392 43.9574 42.6392H43.9573Z" fill="#FBBF24"/>
<path d="M24.0001 28.3618C22.3459 28.3618 21.0005 27.016 21.0005 25.3622V16.9021C21.0005 15.248 22.3459 13.9025 24.0001 13.9025C25.6543 13.9025 26.9997 15.248 26.9997 16.9021V25.3623C26.9997 27.016 25.6543 28.3619 24.0001 28.3619V28.3618ZM24.0001 15.7774C23.3798 15.7774 22.8751 16.2821 22.8751 16.902V25.3622C22.8751 25.9826 23.3798 26.4872 24.0001 26.4872C24.6204 26.4872 25.1251 25.9826 25.1251 25.3622V16.9021C25.1251 16.2822 24.6204 15.7775 24.0001 15.7775V15.7774ZM24.0001 36.6111C22.3459 36.6111 21.0005 35.2656 21.0005 33.6114C21.0005 31.9573 22.3459 30.6118 24.0001 30.6118C25.6543 30.6118 26.9997 31.9573 26.9997 33.6114C26.9997 34.4127 26.6877 35.166 26.1212 35.7325C25.5547 36.2991 24.8014 36.6111 24.0001 36.6111ZM24.0001 32.4864C23.3798 32.4864 22.8751 32.9911 22.8751 33.6114C22.8751 34.2319 23.3798 34.7364 24.0001 34.7364C24.3004 34.7364 24.5831 34.6192 24.7955 34.4069C24.9003 34.3027 24.9834 34.1787 25.0399 34.0422C25.0965 33.9056 25.1255 33.7592 25.1251 33.6114C25.1251 32.9911 24.6204 32.4864 24.0001 32.4864Z" fill="#FBBF24"/>
</svg>
